<svg xmlns="http://www.w3.org/2000/svg" xmlns:xlink="http://www.w3.org/1999/xlink" width="50" zoomAndPan="magnify" viewBox="0 0 37.5 37.499999" height="50" preserveAspectRatio="xMidYMid meet" version="1.0"><defs><clipPath id="2b445555cb"><path d="M 7.5 11.140625 L 30 11.140625 L 30 26.140625 L 7.5 26.140625 Z M 7.5 11.140625 " clip-rule="nonzero"/></clipPath></defs><g clip-path="url(#2b445555cb)"><path fill="#ffffff" d="M 14.574219 26.105469 C 14.472656 26.078125 14.394531 26.042969 14.265625 25.972656 C 13.929688 25.789062 13.84375 25.761719 13.679688 25.78125 C 13.519531 25.800781 13.523438 25.804688 13.253906 25.59375 C 13.164062 25.523438 13.101562 25.5 12.949219 25.488281 C 12.800781 25.472656 12.757812 25.445312 12.574219 25.265625 C 12.417969 25.109375 12.355469 25.066406 12.195312 25.011719 C 11.902344 24.90625 11.589844 24.507812 11.542969 24.175781 L 11.527344 24.082031 L 11.46875 24.054688 C 11.148438 23.898438 10.964844 23.347656 11.117188 22.996094 L 11.140625 22.945312 L 11.105469 22.914062 C 11.023438 22.835938 10.988281 22.742188 10.964844 22.503906 C 10.9375 22.269531 10.910156 22.171875 10.859375 22.113281 C 10.839844 22.09375 10.84375 22.085938 10.878906 22.007812 C 10.964844 21.824219 10.988281 21.683594 11.003906 21.238281 C 11.023438 20.652344 11.070312 20.464844 11.226562 20.300781 L 11.292969 20.234375 L 11.207031 20.179688 C 10.765625 19.894531 10.464844 19.28125 10.5 18.738281 L 10.507812 18.636719 L 10.457031 18.605469 C 10.277344 18.5 10.210938 18.351562 10.125 17.832031 C 10.046875 17.371094 10.027344 17.316406 9.808594 16.890625 C 9.597656 16.488281 9.597656 16.488281 9.589844 16.21875 L 9.582031 15.996094 L 9.542969 15.921875 C 9.5 15.828125 9.40625 15.714844 9.226562 15.523438 C 8.121094 14.355469 7.5 12.433594 8.050781 11.890625 L 8.140625 11.800781 L 8.542969 11.808594 C 10.757812 11.84375 12.53125 12.519531 14.777344 14.179688 C 16.222656 15.246094 17.574219 16.578125 18.683594 18.03125 L 18.796875 18.179688 L 18.808594 18.144531 C 18.828125 18.078125 18.800781 18.03125 18.679688 17.917969 C 18.480469 17.738281 18.480469 17.628906 18.683594 17.464844 C 18.773438 17.390625 18.773438 17.417969 18.671875 17.136719 C 18.179688 15.796875 17.144531 14.261719 16.40625 13.773438 C 16.28125 13.695312 16.242188 13.675781 16.082031 13.628906 C 15.808594 13.550781 15.664062 13.425781 15.664062 13.261719 C 15.664062 13.136719 16.078125 13.308594 16.40625 13.566406 C 17.363281 14.324219 18.222656 15.589844 18.894531 17.242188 C 18.90625 17.273438 18.921875 17.300781 18.929688 17.296875 C 18.933594 17.296875 18.988281 17.292969 19.050781 17.289062 C 19.152344 17.28125 19.160156 17.277344 19.171875 17.25 C 20.089844 14.925781 20.984375 13.601562 22.003906 13.054688 C 22.136719 12.980469 22.164062 12.992188 22.164062 13.105469 C 22.164062 13.261719 22.070312 13.347656 21.757812 13.476562 C 21.355469 13.640625 20.949219 14.117188 20.324219 15.15625 C 19.894531 15.875 19.394531 16.988281 19.359375 17.3125 L 19.351562 17.371094 L 19.445312 17.4375 C 19.640625 17.574219 19.648438 17.71875 19.476562 17.898438 C 19.332031 18.042969 19.304688 18.183594 19.441406 18.082031 C 19.515625 18.023438 19.578125 17.941406 19.6875 17.742188 C 20.101562 17.015625 21.410156 15.457031 22.34375 14.578125 C 24.765625 12.300781 27.007812 11.214844 29.410156 11.148438 L 29.683594 11.140625 L 29.730469 11.199219 C 29.992188 11.488281 30 12.269531 29.75 13.011719 C 29.5625 13.578125 29.285156 14.085938 28.679688 15 L 28.453125 15.34375 L 28.46875 15.464844 C 28.496094 15.699219 28.457031 15.863281 28.28125 16.222656 C 28.109375 16.582031 28.054688 16.769531 28.03125 17.148438 C 27.992188 17.730469 27.953125 17.851562 27.761719 18 L 27.707031 18.042969 L 27.703125 18.296875 C 27.695312 18.929688 27.492188 19.386719 27.097656 19.640625 L 27.019531 19.691406 L 27.0625 19.722656 C 27.207031 19.824219 27.269531 19.996094 27.292969 20.324219 C 27.332031 20.871094 27.332031 20.882812 27.402344 21.039062 C 27.425781 21.085938 27.464844 21.171875 27.488281 21.230469 C 27.582031 21.4375 27.585938 21.492188 27.515625 21.644531 C 27.46875 21.746094 27.46875 21.761719 27.480469 22.089844 C 27.484375 22.253906 27.46875 22.304688 27.386719 22.363281 L 27.351562 22.390625 L 27.375 22.441406 C 27.546875 22.820312 27.390625 23.398438 27.074219 23.558594 C 27.023438 23.582031 27.011719 23.617188 26.996094 23.820312 C 26.976562 24.03125 26.949219 24.09375 26.777344 24.300781 C 26.597656 24.515625 26.523438 24.574219 26.402344 24.582031 C 26.285156 24.59375 26.253906 24.621094 26.074219 24.851562 C 25.941406 25.019531 25.898438 25.046875 25.707031 25.082031 C 25.585938 25.105469 25.519531 25.136719 25.382812 25.242188 C 25.226562 25.367188 25.191406 25.382812 25.03125 25.394531 C 24.84375 25.410156 24.792969 25.433594 24.433594 25.644531 C 24.195312 25.78125 24.136719 25.796875 23.96875 25.785156 C 23.699219 25.765625 23.546875 25.773438 23.289062 25.820312 C 22.808594 25.90625 22.757812 25.902344 22.507812 25.742188 C 22.363281 25.648438 22.304688 25.625 22.136719 25.609375 C 21.640625 25.566406 21.113281 24.855469 20.25 23.0625 C 19.976562 22.496094 19.8125 22.109375 19.648438 21.632812 L 19.578125 21.421875 L 19.570312 21.476562 C 19.566406 21.507812 19.558594 21.847656 19.550781 22.234375 C 19.546875 22.621094 19.539062 22.953125 19.535156 22.96875 C 19.53125 22.984375 19.523438 23.035156 19.515625 23.085938 C 19.488281 23.300781 19.398438 23.53125 19.304688 23.644531 L 19.265625 23.695312 L 19.230469 23.652344 C 18.996094 23.375 18.914062 22.914062 18.878906 21.664062 L 18.871094 21.410156 L 18.6875 21.949219 C 18.265625 23.207031 17.914062 24.003906 17.402344 24.890625 C 17 25.585938 16.851562 25.742188 16.550781 25.792969 C 16.386719 25.820312 16.324219 25.847656 16.167969 25.960938 C 15.949219 26.125 15.839844 26.140625 15.4375 26.082031 C 15.144531 26.039062 15.039062 26.039062 14.917969 26.085938 C 14.808594 26.125 14.683594 26.132812 14.574219 26.105469 Z M 15.585938 25.882812 C 15.65625 25.847656 15.695312 25.769531 15.679688 25.699219 L 15.671875 25.664062 L 15.589844 25.671875 C 15.398438 25.683594 15.332031 25.789062 15.46875 25.859375 C 15.550781 25.898438 15.550781 25.898438 15.585938 25.882812 Z M 16.027344 25.753906 C 16.046875 25.746094 16.113281 25.730469 16.179688 25.71875 C 16.316406 25.699219 16.371094 25.675781 16.394531 25.632812 C 16.425781 25.574219 16.421875 25.574219 16.269531 25.578125 C 16.023438 25.589844 15.921875 25.648438 15.972656 25.746094 C 15.988281 25.773438 15.984375 25.773438 16.027344 25.753906 Z M 15.015625 25.738281 C 15.039062 25.734375 15.042969 25.726562 15.042969 25.644531 L 15.042969 25.558594 L 14.914062 25.535156 C 14.773438 25.515625 14.695312 25.527344 14.679688 25.578125 C 14.652344 25.667969 14.875 25.777344 15.015625 25.738281 Z M 23.195312 25.621094 C 23.257812 25.585938 23.308594 25.5 23.28125 25.480469 C 23.21875 25.429688 23.039062 25.398438 22.992188 25.429688 C 22.972656 25.441406 22.984375 25.488281 23.023438 25.578125 L 23.050781 25.644531 L 23.105469 25.644531 C 23.136719 25.644531 23.171875 25.636719 23.195312 25.621094 Z M 14.191406 25.558594 C 14.191406 25.4375 14.066406 25.351562 13.882812 25.351562 C 13.785156 25.351562 13.785156 25.355469 13.839844 25.441406 C 13.917969 25.5625 14.191406 25.652344 14.191406 25.558594 Z M 22.722656 25.488281 C 22.679688 25.40625 22.613281 25.382812 22.421875 25.382812 C 22.265625 25.382812 22.257812 25.386719 22.300781 25.445312 C 22.335938 25.484375 22.40625 25.507812 22.542969 25.519531 C 22.609375 25.527344 22.679688 25.535156 22.699219 25.542969 C 22.738281 25.550781 22.746094 25.535156 22.722656 25.488281 Z M 15.953125 25.472656 C 16.019531 25.441406 15.980469 25.1875 15.90625 25.179688 C 15.707031 25.164062 15.480469 25.339844 15.589844 25.425781 C 15.667969 25.488281 15.863281 25.515625 15.953125 25.472656 Z M 23.859375 25.4375 C 23.960938 25.40625 24.035156 25.285156 23.96875 25.253906 C 23.816406 25.179688 23.5625 25.289062 23.609375 25.410156 C 23.621094 25.449219 23.773438 25.464844 23.859375 25.4375 Z M 15.308594 25.304688 C 15.292969 25.082031 14.886719 24.949219 14.730469 25.113281 C 14.699219 25.148438 14.699219 25.148438 14.773438 25.203125 C 14.917969 25.304688 15.058594 25.351562 15.21875 25.347656 L 15.3125 25.34375 Z M 16.660156 25.292969 C 17.203125 25.191406 17.765625 23.84375 17.839844 22.457031 C 17.859375 22.070312 17.847656 22.0625 17.703125 22.316406 C 17.648438 22.417969 17.472656 22.714844 17.308594 22.984375 C 17.144531 23.253906 16.980469 23.527344 16.941406 23.597656 C 16.902344 23.664062 16.8125 23.8125 16.746094 23.925781 C 16.394531 24.507812 16.234375 25.132812 16.402344 25.269531 C 16.4375 25.296875 16.566406 25.308594 16.660156 25.292969 Z M 13.375 25.261719 C 13.425781 25.234375 13.359375 25.070312 13.285156 25.027344 C 13.113281 24.925781 12.882812 25.066406 13.039062 25.179688 C 13.15625 25.269531 13.304688 25.304688 13.375 25.261719 Z M 22.992188 25.222656 C 23.117188 25.164062 23.121094 25.15625 23.105469 25.117188 C 23.035156 24.929688 22.675781 24.914062 22.648438 25.097656 C 22.628906 25.257812 22.789062 25.320312 22.992188 25.222656 Z M 24.632812 25.230469 C 24.792969 25.1875 24.917969 24.996094 24.785156 25 C 24.605469 25 24.496094 25.070312 24.480469 25.195312 L 24.472656 25.246094 L 24.519531 25.246094 C 24.542969 25.246094 24.59375 25.238281 24.632812 25.230469 Z M 14.367188 25.164062 C 14.484375 25.101562 14.484375 24.957031 14.371094 24.90625 C 14.179688 24.820312 13.910156 24.992188 14.035156 25.117188 C 14.117188 25.191406 14.277344 25.214844 14.367188 25.164062 Z M 22.148438 25.148438 C 22.371094 25.046875 22.332031 24.636719 22.054688 24.132812 C 21.847656 23.757812 21.691406 23.53125 21.207031 22.882812 C 20.980469 22.582031 20.710938 22.1875 20.667969 22.101562 C 20.503906 21.765625 20.640625 22.765625 20.839844 23.351562 C 21.277344 24.652344 21.765625 25.316406 22.148438 25.148438 Z M 23.542969 25.0625 C 23.882812 25.007812 24.054688 24.765625 23.753906 24.765625 C 23.523438 24.765625 23.359375 24.871094 23.320312 25.046875 L 23.3125 25.078125 L 23.378906 25.078125 C 23.417969 25.078125 23.488281 25.070312 23.542969 25.0625 Z M 15.796875 24.875 C 16 24.796875 16.160156 24.636719 16.371094 24.3125 C 16.414062 24.242188 16.503906 24.105469 16.566406 24.003906 C 16.734375 23.742188 16.820312 23.601562 17.09375 23.136719 C 17.320312 22.75 17.394531 22.628906 17.757812 22.054688 C 18.101562 21.515625 18.269531 21.1875 18.394531 20.800781 C 18.507812 20.449219 18.578125 19.96875 18.515625 19.9375 C 18.480469 19.917969 18.476562 19.921875 18.410156 20.023438 C 18.128906 20.4375 17.707031 20.816406 16.875 21.390625 C 16.46875 21.671875 16.25 21.835938 16.246094 21.859375 C 16.117188 22.46875 15.90625 23.003906 15.496094 23.765625 C 15.242188 24.246094 15.203125 24.632812 15.386719 24.867188 C 15.425781 24.917969 15.671875 24.921875 15.796875 24.875 Z M 25.417969 24.871094 C 25.570312 24.847656 25.65625 24.757812 25.632812 24.648438 C 25.59375 24.484375 25.265625 24.636719 25.25 24.824219 L 25.242188 24.882812 L 25.292969 24.882812 C 25.320312 24.882812 25.378906 24.878906 25.417969 24.871094 Z M 24.472656 24.859375 C 24.621094 24.824219 24.65625 24.675781 24.535156 24.59375 C 24.40625 24.507812 24.175781 24.585938 24.175781 24.714844 C 24.175781 24.847656 24.292969 24.90625 24.472656 24.859375 Z M 13.640625 24.84375 C 13.679688 24.835938 13.683594 24.835938 13.675781 24.796875 C 13.660156 24.679688 13.59375 24.644531 13.410156 24.636719 L 13.28125 24.632812 L 13.28125 24.667969 C 13.28125 24.796875 13.445312 24.875 13.640625 24.84375 Z M 12.699219 24.816406 C 12.78125 24.777344 12.640625 24.574219 12.5 24.527344 C 12.398438 24.492188 12.3125 24.53125 12.277344 24.625 C 12.222656 24.753906 12.53125 24.894531 12.699219 24.816406 Z M 23.175781 24.65625 C 23.261719 24.628906 23.3125 24.480469 23.3125 24.253906 C 23.3125 23.984375 23.238281 23.800781 22.941406 23.34375 C 22.628906 22.859375 22.433594 22.445312 22.179688 21.707031 L 22.144531 21.613281 L 22.066406 21.566406 C 21.082031 21.019531 20.253906 20.425781 19.878906 20 C 19.796875 19.90625 19.78125 19.894531 19.773438 19.933594 C 19.769531 19.945312 19.757812 19.960938 19.75 19.96875 C 19.714844 19.992188 19.8125 20.375 19.933594 20.671875 C 20.113281 21.128906 20.359375 21.527344 20.953125 22.335938 C 21.269531 22.765625 21.390625 22.9375 21.585938 23.246094 C 22.371094 24.464844 22.726562 24.785156 23.175781 24.65625 Z M 14.558594 24.53125 C 15.011719 24.476562 15.160156 24.324219 15.527344 23.546875 C 15.613281 23.363281 15.726562 23.125 15.777344 23.019531 C 16 22.566406 16.089844 22.296875 16.109375 22.019531 L 16.117188 21.910156 L 16.070312 21.914062 C 15.945312 21.933594 15.234375 22.300781 14.820312 22.558594 C 13.871094 23.152344 13.414062 23.765625 13.617188 24.179688 C 13.734375 24.425781 14.15625 24.582031 14.558594 24.53125 Z M 25.109375 24.464844 C 25.324219 24.429688 25.378906 24.25 25.175781 24.25 C 25.046875 24.25 24.914062 24.351562 24.914062 24.453125 C 24.914062 24.480469 24.980469 24.484375 25.109375 24.464844 Z M 12.964844 24.429688 C 12.996094 24.417969 13.023438 24.402344 13.027344 24.402344 C 13.0625 24.371094 12.894531 24.238281 12.820312 24.238281 C 12.792969 24.238281 12.8125 24.324219 12.851562 24.386719 C 12.898438 24.464844 12.894531 24.460938 12.964844 24.429688 Z M 26.160156 24.371094 C 26.292969 24.308594 26.371094 24.199219 26.320312 24.144531 C 26.171875 23.992188 25.914062 24.109375 25.898438 24.335938 C 25.894531 24.410156 26.027344 24.429688 26.160156 24.371094 Z M 11.960938 24.296875 C 12 24.074219 11.949219 23.890625 11.835938 23.859375 C 11.777344 23.84375 11.757812 24.167969 11.808594 24.277344 C 11.863281 24.402344 11.9375 24.414062 11.960938 24.296875 Z M 24.359375 24.207031 C 24.753906 24.128906 25.003906 23.859375 24.957031 23.554688 C 24.875 22.96875 24.019531 22.335938 22.554688 21.78125 L 22.355469 21.707031 L 22.324219 21.726562 C 22.195312 21.824219 22.96875 23.390625 23.394531 23.890625 C 23.648438 24.1875 23.949219 24.289062 24.359375 24.207031 Z M 12.398438 23.984375 C 12.429688 23.898438 12.25 23.683594 12.195312 23.738281 C 12.183594 23.753906 12.214844 23.925781 12.234375 23.960938 C 12.277344 24.027344 12.378906 24.042969 12.398438 23.984375 Z M 25.695312 24.011719 L 25.753906 23.996094 L 25.746094 23.910156 C 25.738281 23.808594 25.742188 23.816406 25.699219 23.828125 C 25.652344 23.847656 25.535156 23.972656 25.535156 24.003906 C 25.535156 24.023438 25.621094 24.027344 25.695312 24.011719 Z M 26.726562 23.859375 C 26.84375 23.6875 26.800781 23.375 26.660156 23.375 C 26.644531 23.375 26.613281 23.492188 26.585938 23.6875 C 26.566406 23.820312 26.667969 23.945312 26.726562 23.859375 Z M 13.230469 23.710938 C 13.378906 23.644531 13.519531 23.519531 13.792969 23.210938 C 14.085938 22.882812 14.273438 22.742188 14.839844 22.417969 C 15.121094 22.253906 15.105469 22.265625 15.097656 22.261719 C 15.085938 22.253906 14.589844 22.277344 14.4375 22.292969 C 13.445312 22.398438 12.78125 22.679688 12.636719 23.054688 C 12.484375 23.445312 12.871094 23.875 13.230469 23.710938 Z M 26.261719 23.554688 C 26.339844 23.5 26.378906 23.371094 26.332031 23.308594 C 26.308594 23.273438 26.292969 23.277344 26.230469 23.34375 C 26.097656 23.484375 26.121094 23.648438 26.261719 23.554688 Z M 11.625 23.382812 C 11.625 23.363281 11.632812 23.328125 11.640625 23.304688 C 11.683594 23.207031 11.632812 23.136719 11.519531 23.136719 C 11.492188 23.136719 11.441406 23.28125 11.441406 23.351562 L 11.441406 23.421875 L 11.625 23.421875 Z M 25.585938 23.335938 C 25.808594 23.261719 25.976562 22.910156 25.890625 22.691406 C 25.730469 22.265625 24.632812 21.914062 23.625 21.96875 C 23.367188 21.984375 23.371094 21.984375 23.519531 22.058594 C 23.867188 22.242188 24.3125 22.546875 24.632812 22.820312 C 25.15625 23.269531 25.394531 23.398438 25.585938 23.335938 Z M 17.929688 23.328125 C 17.929688 23.285156 18.089844 22.9375 18.292969 22.523438 C 18.800781 21.503906 18.921875 21.039062 18.851562 20.375 C 18.832031 20.179688 18.78125 20.128906 18.742188 20.257812 C 18.6875 20.4375 18.574219 20.703125 18.390625 21.085938 C 17.929688 22.035156 17.8125 22.546875 17.894531 23.214844 C 17.90625 23.316406 17.929688 23.390625 17.929688 23.328125 Z M 12.175781 23.296875 C 12.199219 23.28125 12.15625 23.136719 12.113281 23.09375 C 12.0625 23.042969 12.027344 23.046875 12.007812 23.109375 C 11.964844 23.230469 12.078125 23.359375 12.175781 23.296875 Z M 20.65625 23.082031 C 20.628906 22.339844 20.453125 21.832031 19.910156 20.890625 C 19.804688 20.714844 19.671875 20.472656 19.609375 20.359375 L 19.5 20.148438 L 19.492188 20.214844 C 19.398438 20.855469 19.625 21.558594 20.257812 22.601562 C 20.40625 22.84375 20.554688 23.097656 20.585938 23.164062 C 20.667969 23.316406 20.664062 23.320312 20.65625 23.082031 Z M 27.042969 22.902344 C 27.109375 22.867188 27.078125 22.746094 26.980469 22.667969 C 26.910156 22.613281 26.851562 22.675781 26.863281 22.800781 C 26.871094 22.917969 26.933594 22.953125 27.042969 22.902344 Z M 26.457031 22.824219 C 26.476562 22.800781 26.484375 22.753906 26.480469 22.644531 L 26.476562 22.578125 L 26.445312 22.585938 C 26.375 22.605469 26.339844 22.667969 26.339844 22.773438 L 26.339844 22.84375 L 26.390625 22.84375 C 26.421875 22.84375 26.445312 22.835938 26.457031 22.824219 Z M 11.585938 22.785156 C 11.605469 22.695312 11.539062 22.585938 11.4375 22.539062 C 11.355469 22.5 11.324219 22.597656 11.367188 22.757812 L 11.386719 22.832031 L 11.574219 22.824219 Z M 12.082031 22.613281 C 12.160156 22.550781 12.011719 22.398438 11.902344 22.433594 C 11.832031 22.453125 11.828125 22.46875 11.875 22.535156 C 11.9375 22.628906 12.023438 22.664062 12.082031 22.613281 Z M 12.929688 22.601562 C 13.824219 22.445312 14.644531 21.695312 14.671875 21.007812 L 14.675781 20.859375 L 14.617188 20.855469 C 14.570312 20.851562 14.535156 20.855469 14.460938 20.882812 C 14.332031 20.925781 14.179688 20.953125 13.777344 21.003906 C 12.871094 21.125 12.695312 21.183594 12.40625 21.46875 C 11.78125 22.085938 12.085938 22.746094 12.929688 22.601562 Z M 27.070312 22.296875 C 27.152344 22.214844 27.144531 22.015625 27.058594 22.015625 C 27.027344 22.015625 26.90625 22.136719 26.890625 22.179688 C 26.847656 22.316406 26.972656 22.394531 27.070312 22.296875 Z M 11.851562 22.183594 C 11.898438 22.054688 11.828125 21.800781 11.773438 21.902344 C 11.765625 21.917969 11.734375 21.953125 11.703125 21.980469 C 11.613281 22.066406 11.628906 22.128906 11.753906 22.195312 C 11.828125 22.234375 11.835938 22.234375 11.851562 22.183594 Z M 26.007812 22.179688 C 26.542969 22.007812 26.472656 21.390625 25.867188 20.941406 C 25.597656 20.738281 25.382812 20.695312 24.574219 20.675781 C 24.089844 20.664062 24.007812 20.65625 23.828125 20.59375 C 23.59375 20.515625 23.582031 20.648438 23.785156 21.054688 C 24.078125 21.644531 24.703125 22.046875 25.570312 22.199219 C 25.636719 22.210938 25.957031 22.199219 26.007812 22.179688 Z M 14.738281 22.152344 C 15.195312 22.074219 15.628906 21.90625 16.1875 21.589844 C 17.636719 20.769531 18.121094 20.308594 18.246094 19.632812 C 18.265625 19.527344 18.144531 19.550781 17.710938 19.734375 C 16.96875 20.054688 16.855469 20.074219 16.308594 19.972656 C 15.449219 19.8125 15.1875 20.011719 14.792969 21.125 C 14.578125 21.734375 14.476562 21.945312 14.308594 22.128906 L 14.253906 22.1875 L 14.425781 22.179688 C 14.523438 22.175781 14.660156 22.164062 14.738281 22.152344 Z M 26.519531 22.144531 C 26.589844 22.097656 26.621094 21.964844 26.566406 21.953125 C 26.476562 21.929688 26.359375 22.023438 26.382812 22.097656 C 26.40625 22.175781 26.449219 22.191406 26.519531 22.144531 Z M 11.351562 22.125 C 11.378906 22.109375 11.378906 22.082031 11.355469 22.035156 C 11.304688 21.9375 11.15625 21.980469 11.15625 22.09375 C 11.15625 22.144531 11.285156 22.164062 11.351562 22.125 Z M 24.167969 21.859375 C 24.164062 21.832031 24.082031 21.695312 24.011719 21.609375 C 23.84375 21.402344 23.789062 21.304688 23.574219 20.820312 C 23.363281 20.347656 23.246094 20.152344 23.082031 19.988281 C 22.816406 19.726562 22.617188 19.695312 21.980469 19.8125 C 21.394531 19.921875 21.304688 19.910156 20.566406 19.640625 C 20.277344 19.535156 20.054688 19.480469 20.039062 19.515625 C 19.917969 19.832031 20.363281 20.359375 21.152344 20.820312 C 22.296875 21.488281 23.007812 21.777344 23.710938 21.859375 C 23.78125 21.867188 24.167969 21.867188 24.167969 21.859375 Z M 11.351562 21.726562 C 11.402344 21.644531 11.367188 21.480469 11.285156 21.433594 C 11.238281 21.40625 11.238281 21.402344 11.21875 21.515625 C 11.183594 21.707031 11.273438 21.851562 11.351562 21.726562 Z M 26.683594 21.722656 C 26.789062 21.65625 26.773438 21.496094 26.65625 21.425781 C 26.574219 21.375 26.574219 21.382812 26.566406 21.667969 C 26.566406 21.757812 26.605469 21.777344 26.683594 21.722656 Z M 11.832031 21.703125 C 11.914062 21.660156 11.929688 21.554688 11.875 21.390625 C 11.832031 21.265625 11.769531 21.257812 11.6875 21.363281 C 11.558594 21.53125 11.667969 21.785156 11.832031 21.703125 Z M 27.214844 21.613281 C 27.269531 21.585938 27.253906 21.511719 27.179688 21.476562 C 27.160156 21.464844 27.140625 21.457031 27.140625 21.460938 C 27.011719 21.589844 27.058594 21.6875 27.214844 21.613281 Z M 27.160156 21.21875 C 27.246094 21.121094 27.183594 20.902344 27.066406 20.902344 C 27.03125 20.902344 27.003906 21.171875 27.035156 21.210938 C 27.074219 21.261719 27.125 21.265625 27.160156 21.21875 Z M 26.722656 21.207031 C 26.796875 21.078125 26.699219 20.8125 26.582031 20.8125 C 26.515625 20.8125 26.46875 21.039062 26.507812 21.167969 L 26.527344 21.230469 L 26.617188 21.230469 C 26.699219 21.230469 26.710938 21.230469 26.722656 21.207031 Z M 11.597656 21.015625 C 11.84375 20.898438 11.925781 20.796875 11.953125 20.585938 L 11.960938 20.527344 L 11.90625 20.503906 C 11.664062 20.398438 11.421875 20.625 11.398438 20.984375 L 11.390625 21.097656 L 11.425781 21.089844 C 11.445312 21.085938 11.523438 21.050781 11.597656 21.015625 Z M 13.53125 20.9375 C 14.089844 20.902344 14.550781 20.824219 14.753906 20.722656 C 14.898438 20.648438 14.980469 20.542969 15.097656 20.28125 C 15.195312 20.058594 15.304688 19.90625 15.367188 19.902344 C 15.40625 19.902344 15.320312 19.882812 15.1875 19.859375 C 13.5625 19.605469 12.378906 20.007812 12.472656 20.789062 C 12.488281 20.917969 12.875 20.972656 13.53125 20.9375 Z M 26.972656 20.527344 C 26.972656 20.117188 26.550781 19.828125 26.378906 20.117188 L 26.347656 20.164062 L 26.402344 20.238281 C 26.511719 20.390625 26.664062 20.503906 26.835938 20.5625 C 26.972656 20.609375 26.972656 20.609375 26.972656 20.527344 Z M 25.539062 20.550781 C 25.808594 20.496094 25.917969 20.414062 25.902344 20.285156 C 25.835938 19.636719 24.996094 19.34375 23.675781 19.507812 C 23.304688 19.554688 22.789062 19.667969 22.945312 19.667969 C 22.992188 19.667969 23.070312 19.769531 23.191406 19.988281 C 23.429688 20.414062 23.523438 20.464844 24.109375 20.511719 C 24.230469 20.519531 24.453125 20.539062 24.601562 20.550781 C 24.988281 20.582031 24.976562 20.582031 25.210938 20.578125 C 25.371094 20.574219 25.453125 20.566406 25.539062 20.550781 Z M 16.878906 19.855469 C 17.363281 19.796875 17.855469 19.640625 17.894531 19.535156 C 17.921875 19.46875 17.90625 19.460938 17.800781 19.492188 C 17.433594 19.597656 16.96875 19.644531 16.039062 19.664062 C 15.367188 19.683594 15.132812 19.691406 15.132812 19.699219 C 15.132812 19.742188 15.710938 19.851562 16.050781 19.875 C 16.199219 19.882812 16.734375 19.871094 16.878906 19.855469 Z M 22.042969 19.6875 C 22.421875 19.65625 23.152344 19.511719 23.152344 19.46875 C 23.152344 19.464844 22.59375 19.460938 21.914062 19.464844 C 20.792969 19.46875 20.65625 19.464844 20.484375 19.449219 C 20.382812 19.4375 20.292969 19.429688 20.292969 19.429688 C 20.285156 19.4375 20.539062 19.550781 20.625 19.578125 C 20.988281 19.695312 21.523438 19.734375 22.042969 19.6875 Z M 13.015625 19.410156 C 13.128906 19.386719 13.261719 19.34375 13.511719 19.253906 C 14.414062 18.917969 14.816406 18.886719 15.957031 19.042969 C 16.566406 19.125 16.769531 19.148438 17.109375 19.167969 C 17.757812 19.207031 18.28125 19.101562 18.539062 18.886719 L 18.578125 18.851562 L 18.496094 18.84375 C 18.121094 18.8125 17.78125 18.660156 17.234375 18.289062 C 16.832031 18.019531 16.660156 17.921875 16.238281 17.738281 C 15.371094 17.363281 15.121094 17.335938 14.367188 17.554688 C 13.941406 17.679688 13.816406 17.703125 13.316406 17.730469 C 12.792969 17.765625 12.617188 17.792969 12.433594 17.875 C 11.601562 18.242188 12.113281 19.585938 13.015625 19.410156 Z M 11.402344 19.105469 C 11.515625 19.050781 11.574219 18.914062 11.523438 18.832031 C 11.378906 18.601562 11.003906 18.632812 11.003906 18.875 C 11.003906 19.074219 11.214844 19.195312 11.402344 19.105469 Z M 21.175781 19.035156 C 21.445312 19.003906 21.753906 18.953125 22.269531 18.847656 C 23.050781 18.691406 23.214844 18.667969 23.492188 18.667969 C 23.890625 18.667969 24.386719 18.753906 24.859375 18.90625 C 25.441406 19.09375 25.695312 19.054688 25.957031 18.734375 C 26.355469 18.253906 26.226562 17.636719 25.691406 17.464844 C 25.460938 17.394531 25.308594 17.375 24.746094 17.363281 C 24.246094 17.351562 24.179688 17.34375 23.746094 17.253906 C 22.789062 17.054688 22.492188 17.144531 21.3125 17.992188 C 20.71875 18.417969 20.597656 18.484375 20.171875 18.628906 C 19.925781 18.710938 19.75 18.785156 19.691406 18.835938 L 19.660156 18.859375 L 19.742188 18.894531 C 20.09375 19.050781 20.613281 19.101562 21.175781 19.035156 Z M 18.636719 18.597656 C 18.589844 18.125 18.273438 17.738281 16.96875 16.5625 C 16.824219 16.433594 16.527344 16.152344 16.3125 15.945312 C 15.199219 14.863281 14.6875 14.574219 13.777344 14.515625 C 13.554688 14.5 12.984375 14.535156 12.949219 14.566406 C 12.949219 14.570312 12.976562 14.609375 13.019531 14.652344 C 13.308594 14.984375 13.527344 15.390625 13.605469 15.734375 L 13.621094 15.800781 L 13.789062 15.894531 C 14.21875 16.148438 14.316406 16.207031 14.425781 16.289062 C 14.671875 16.464844 14.828125 16.640625 14.917969 16.828125 C 15.042969 17.09375 15.054688 17.113281 15.117188 17.171875 C 15.203125 17.261719 15.308594 17.308594 15.652344 17.417969 C 15.890625 17.496094 16.007812 17.542969 16.175781 17.621094 C 16.503906 17.777344 17.015625 18.039062 17.210938 18.152344 C 17.71875 18.445312 17.875 18.527344 18.097656 18.597656 C 18.269531 18.65625 18.386719 18.675781 18.53125 18.679688 L 18.644531 18.679688 Z M 19.832031 18.621094 C 20.121094 18.5625 20.367188 18.4375 20.835938 18.105469 C 21.277344 17.789062 21.382812 17.730469 22.125 17.367188 C 22.933594 16.976562 23.015625 16.929688 23.039062 16.847656 C 23.167969 16.402344 23.644531 15.898438 24.257812 15.546875 C 24.375 15.480469 24.375 15.480469 24.40625 15.34375 C 24.511719 14.929688 24.699219 14.527344 24.875 14.34375 C 25.023438 14.1875 24.996094 14.167969 24.617188 14.171875 C 23.355469 14.175781 22.753906 14.523438 21.5 15.980469 C 21.125 16.414062 20.988281 16.570312 20.726562 16.839844 C 20.28125 17.300781 20.144531 17.453125 19.988281 17.664062 C 19.746094 17.984375 19.613281 18.28125 19.589844 18.558594 L 19.582031 18.652344 L 19.652344 18.648438 C 19.6875 18.644531 19.769531 18.632812 19.832031 18.621094 Z M 27.042969 18.605469 C 27.316406 18.511719 27.230469 18.117188 26.945312 18.164062 C 26.746094 18.195312 26.632812 18.351562 26.707031 18.496094 C 26.761719 18.597656 26.914062 18.648438 27.042969 18.605469 Z M 10.847656 18.042969 C 10.847656 17.941406 10.789062 17.882812 10.675781 17.867188 L 10.625 17.859375 L 10.628906 17.902344 C 10.648438 18.011719 10.703125 18.082031 10.78125 18.101562 C 10.84375 18.117188 10.847656 18.113281 10.847656 18.042969 Z M 11.609375 18.019531 C 11.640625 18.007812 11.679688 17.984375 11.699219 17.96875 L 11.726562 17.933594 L 11.722656 17.796875 L 11.714844 17.65625 L 11.652344 17.65625 C 11.460938 17.65625 11.292969 17.75 11.21875 17.894531 L 11.1875 17.953125 L 11.226562 17.980469 C 11.3125 18.054688 11.46875 18.070312 11.609375 18.019531 Z M 12.710938 17.722656 C 12.800781 17.707031 13.019531 17.660156 13.203125 17.621094 C 13.382812 17.578125 13.644531 17.523438 13.78125 17.5 C 15.035156 17.269531 15.15625 16.976562 14.265625 16.347656 C 13.917969 16.101562 13.449219 16.082031 12.414062 16.269531 C 11.785156 16.378906 11.566406 16.683594 11.710938 17.226562 C 11.835938 17.699219 12.085938 17.824219 12.710938 17.722656 Z M 26.78125 17.550781 C 26.878906 17.535156 26.953125 17.433594 26.917969 17.363281 C 26.816406 17.167969 26.386719 17.105469 26.386719 17.285156 C 26.386719 17.441406 26.5625 17.585938 26.71875 17.558594 C 26.730469 17.558594 26.757812 17.554688 26.78125 17.550781 Z M 27.402344 17.550781 C 27.472656 17.523438 27.496094 17.484375 27.5 17.394531 C 27.507812 17.304688 27.5 17.300781 27.402344 17.34375 C 27.253906 17.414062 27.25 17.613281 27.402344 17.550781 Z M 10.574219 17.324219 C 10.5625 17.207031 10.5 17.125 10.359375 17.046875 C 10.277344 17 10.277344 17 10.285156 17.066406 C 10.308594 17.238281 10.378906 17.335938 10.507812 17.375 C 10.578125 17.394531 10.582031 17.390625 10.574219 17.324219 Z M 11.28125 17.355469 C 11.578125 17.253906 11.410156 16.886719 11.066406 16.886719 C 10.894531 16.886719 10.773438 16.984375 10.773438 17.121094 C 10.773438 17.304688 11.058594 17.433594 11.28125 17.355469 Z M 25.917969 17.300781 C 26.449219 17.191406 26.578125 16.183594 26.089844 15.957031 C 25.683594 15.761719 24.324219 15.699219 24 15.855469 C 23.84375 15.929688 23.53125 16.199219 23.394531 16.378906 C 23.058594 16.820312 23.289062 17.019531 24.285156 17.160156 C 24.425781 17.179688 24.664062 17.210938 24.816406 17.234375 C 25.390625 17.320312 25.734375 17.339844 25.917969 17.300781 Z M 27.03125 16.863281 C 27.421875 16.78125 27.429688 16.363281 27.042969 16.363281 C 26.800781 16.363281 26.617188 16.558594 26.660156 16.761719 C 26.679688 16.847656 26.863281 16.898438 27.03125 16.863281 Z M 27.703125 16.757812 C 27.789062 16.671875 27.8125 16.578125 27.769531 16.484375 L 27.746094 16.441406 L 27.722656 16.480469 C 27.710938 16.5 27.671875 16.539062 27.640625 16.566406 C 27.558594 16.632812 27.5 16.792969 27.542969 16.832031 C 27.5625 16.851562 27.648438 16.808594 27.703125 16.757812 Z M 10.90625 16.445312 C 10.988281 16.40625 11.046875 16.316406 11.035156 16.25 C 11.023438 16.148438 10.546875 16.160156 10.535156 16.257812 C 10.511719 16.421875 10.734375 16.535156 10.90625 16.445312 Z M 10.117188 16.417969 C 10.191406 16.378906 10.214844 16.214844 10.148438 16.195312 C 10.058594 16.164062 9.972656 16.238281 9.980469 16.335938 C 9.988281 16.429688 10.035156 16.457031 10.117188 16.417969 Z M 12.488281 16.183594 C 12.644531 16.164062 12.765625 16.128906 13.070312 16.019531 C 13.226562 15.960938 13.390625 15.902344 13.433594 15.890625 C 13.519531 15.871094 13.519531 15.867188 13.492188 15.796875 C 13.484375 15.769531 13.449219 15.648438 13.414062 15.527344 C 13.3125 15.171875 13.257812 15.046875 13.15625 14.933594 C 12.761719 14.492188 11.71875 14.542969 11.488281 15.015625 C 11.171875 15.671875 11.691406 16.277344 12.488281 16.183594 Z M 27.410156 15.890625 C 27.433594 15.863281 27.460938 15.824219 27.476562 15.804688 C 27.546875 15.707031 27.421875 15.613281 27.25 15.632812 C 26.917969 15.671875 26.953125 15.9375 27.289062 15.945312 L 27.371094 15.945312 Z M 28.042969 15.773438 C 28.039062 15.613281 28.015625 15.589844 27.902344 15.628906 L 27.855469 15.644531 L 27.859375 15.710938 C 27.867188 15.804688 27.914062 15.847656 28.011719 15.851562 L 28.042969 15.855469 Z M 10.773438 15.78125 C 11.15625 15.648438 11.042969 15.054688 10.636719 15.054688 C 10.34375 15.054688 10.15625 15.359375 10.285156 15.621094 C 10.359375 15.773438 10.582031 15.847656 10.773438 15.78125 Z M 25.988281 15.746094 C 26.378906 15.644531 26.589844 15.339844 26.566406 14.914062 C 26.53125 14.332031 26.136719 14.089844 25.460938 14.230469 C 24.898438 14.347656 24.699219 14.546875 24.597656 15.089844 C 24.546875 15.34375 24.519531 15.484375 24.515625 15.496094 C 24.511719 15.507812 24.539062 15.519531 24.597656 15.53125 C 24.648438 15.542969 24.824219 15.589844 24.988281 15.632812 C 25.152344 15.679688 25.339844 15.726562 25.40625 15.742188 C 25.472656 15.753906 25.542969 15.765625 25.558594 15.769531 C 25.621094 15.78125 25.921875 15.765625 25.988281 15.746094 Z M 9.996094 15.496094 C 10.132812 15.425781 10.109375 15.265625 9.960938 15.265625 C 9.84375 15.265625 9.742188 15.375 9.769531 15.472656 C 9.78125 15.53125 9.90625 15.542969 9.996094 15.496094 Z M 27.410156 15.238281 C 27.882812 15.136719 27.816406 14.507812 27.335938 14.511719 C 26.980469 14.515625 26.820312 15.046875 27.125 15.203125 C 27.207031 15.246094 27.304688 15.257812 27.410156 15.238281 Z M 9.503906 15.167969 C 9.558594 15.035156 9.464844 14.890625 9.324219 14.890625 C 9.234375 14.890625 9.199219 15 9.253906 15.109375 C 9.304688 15.214844 9.46875 15.25 9.503906 15.167969 Z M 28.191406 14.921875 C 28.226562 14.910156 28.230469 14.90625 28.222656 14.855469 C 28.207031 14.671875 27.960938 14.609375 27.878906 14.765625 L 27.859375 14.804688 L 27.894531 14.835938 C 27.992188 14.917969 28.109375 14.949219 28.191406 14.921875 Z M 10.050781 14.859375 C 10.078125 14.824219 10.070312 14.699219 10.03125 14.625 L 10 14.558594 L 9.910156 14.5625 C 9.761719 14.570312 9.746094 14.613281 9.820312 14.796875 L 9.855469 14.878906 L 9.945312 14.878906 C 10.015625 14.878906 10.039062 14.875 10.050781 14.859375 Z M 10.800781 14.699219 C 11.242188 14.585938 11.332031 14.082031 10.925781 13.984375 C 10.675781 13.929688 10.054688 14.054688 10 14.171875 C 9.847656 14.515625 10.3125 14.820312 10.800781 14.699219 Z M 28.589844 14.578125 C 28.703125 14.535156 28.75 14.421875 28.707031 14.300781 L 28.695312 14.261719 L 28.625 14.269531 C 28.5 14.277344 28.429688 14.347656 28.429688 14.46875 C 28.429688 14.589844 28.476562 14.621094 28.589844 14.578125 Z M 9.382812 14.464844 C 9.605469 14.390625 9.613281 14.167969 9.398438 14.066406 C 9.164062 13.953125 8.875 14.148438 8.972656 14.351562 C 9.027344 14.460938 9.226562 14.515625 9.382812 14.464844 Z M 12.695312 14.332031 C 12.800781 14.304688 12.804688 14.300781 12.789062 14.246094 C 12.699219 13.953125 12.070312 13.859375 11.816406 14.101562 C 11.761719 14.15625 11.761719 14.15625 11.851562 14.203125 C 12.15625 14.351562 12.441406 14.394531 12.695312 14.332031 Z M 14.480469 14.300781 C 14.480469 14.289062 14.328125 14.148438 14.21875 14.0625 C 13.925781 13.824219 13.5625 13.667969 13.179688 13.605469 C 13.035156 13.585938 13.035156 13.589844 13.167969 13.707031 C 13.464844 13.972656 13.753906 14.144531 14.070312 14.242188 C 14.246094 14.296875 14.480469 14.328125 14.480469 14.300781 Z M 28.109375 14.234375 C 28.152344 14.074219 28.128906 13.964844 28.054688 13.964844 C 27.902344 13.972656 27.820312 14.105469 27.882812 14.238281 L 27.902344 14.289062 L 28.097656 14.289062 Z M 27.5 14.167969 C 27.746094 14.113281 27.898438 13.957031 27.929688 13.730469 L 27.941406 13.640625 L 27.90625 13.601562 C 27.765625 13.460938 27.304688 13.378906 27.042969 13.453125 C 26.398438 13.632812 26.839844 14.324219 27.5 14.167969 Z M 23.699219 13.980469 C 24.058594 13.855469 24.378906 13.65625 24.675781 13.367188 C 24.855469 13.195312 24.855469 13.199219 24.640625 13.25 C 24.105469 13.382812 23.542969 13.753906 23.441406 14.050781 C 23.4375 14.0625 23.558594 14.03125 23.699219 13.980469 Z M 8.84375 13.9375 C 8.921875 13.914062 8.960938 13.871094 8.953125 13.820312 C 8.925781 13.632812 8.613281 13.527344 8.535156 13.679688 C 8.453125 13.839844 8.636719 13.992188 8.84375 13.9375 Z M 25.65625 13.914062 C 25.824219 13.871094 25.976562 13.792969 26.070312 13.699219 L 26.113281 13.65625 L 26.058594 13.621094 C 25.75 13.425781 25.183594 13.554688 25.125 13.828125 C 25.105469 13.925781 25.417969 13.972656 25.65625 13.914062 Z M 11.800781 13.863281 C 11.898438 13.84375 12.039062 13.785156 12.039062 13.761719 C 12.039062 13.714844 11.933594 13.617188 11.828125 13.574219 C 11.648438 13.496094 11.1875 13.476562 11.1875 13.550781 C 11.1875 13.757812 11.503906 13.921875 11.800781 13.863281 Z M 28.710938 13.851562 C 28.777344 13.832031 28.859375 13.789062 28.898438 13.753906 C 28.921875 13.734375 28.921875 13.722656 28.917969 13.613281 L 28.914062 13.492188 L 28.828125 13.453125 C 28.605469 13.347656 28.425781 13.417969 28.414062 13.613281 C 28.402344 13.796875 28.53125 13.902344 28.710938 13.851562 Z M 10.367188 13.703125 C 10.71875 13.648438 11.003906 13.464844 11.003906 13.292969 C 11.003906 13.234375 10.175781 13.199219 9.945312 13.25 C 9.683594 13.304688 9.539062 13.417969 9.507812 13.59375 C 9.492188 13.683594 9.492188 13.679688 9.609375 13.699219 C 9.839844 13.734375 10.164062 13.738281 10.367188 13.703125 Z M 12.140625 13.40625 C 12.121094 12.953125 11.445312 12.644531 11.449219 13.089844 C 11.449219 13.355469 11.636719 13.480469 12.089844 13.519531 C 12.144531 13.523438 12.148438 13.515625 12.140625 13.40625 Z M 9.125 13.441406 C 9.21875 13.410156 9.28125 13.378906 9.328125 13.328125 L 9.359375 13.296875 L 9.335938 13.246094 C 9.199219 12.980469 8.644531 12.996094 8.644531 13.265625 C 8.644531 13.449219 8.863281 13.527344 9.125 13.441406 Z M 26.320312 13.386719 C 26.5 13.34375 26.648438 13.214844 26.679688 13.078125 L 26.6875 13.042969 L 26.621094 13.03125 C 26.304688 12.988281 25.964844 13.089844 25.839844 13.265625 C 25.800781 13.324219 25.804688 13.328125 25.914062 13.371094 C 26.027344 13.414062 26.179688 13.417969 26.320312 13.386719 Z M 13.019531 13.351562 C 13.019531 13.195312 12.714844 12.996094 12.433594 12.964844 L 12.363281 12.957031 L 12.375 12.992188 C 12.417969 13.113281 12.5625 13.253906 12.691406 13.300781 C 12.796875 13.339844 13.019531 13.375 13.019531 13.351562 Z M 29.234375 13.257812 C 29.324219 13.214844 29.367188 13.148438 29.367188 13.058594 C 29.367188 12.859375 28.972656 12.933594 28.933594 13.136719 C 28.914062 13.253906 29.097656 13.328125 29.234375 13.257812 Z M 28.058594 13.132812 C 28.164062 13.105469 28.289062 13.042969 28.335938 12.992188 L 28.371094 12.960938 L 28.34375 12.910156 C 28.195312 12.640625 27.34375 12.558594 26.875 12.773438 L 26.808594 12.800781 L 26.828125 12.835938 C 26.953125 13.078125 27.640625 13.242188 28.058594 13.132812 Z M 10.210938 13.097656 C 10.511719 13.03125 10.765625 12.84375 10.738281 12.703125 C 10.683594 12.4375 9.371094 12.527344 9.371094 12.796875 C 9.371094 13.042969 9.78125 13.191406 10.210938 13.097656 Z M 25.980469 13.039062 C 26.226562 12.980469 26.386719 12.78125 26.386719 12.53125 L 26.386719 12.429688 L 26.339844 12.414062 C 26.070312 12.324219 25.75 12.609375 25.699219 12.992188 L 25.691406 13.050781 L 25.730469 13.054688 C 25.78125 13.0625 25.917969 13.054688 25.980469 13.039062 Z M 24.976562 12.957031 C 25.164062 12.921875 25.316406 12.816406 25.40625 12.667969 C 25.472656 12.554688 25.476562 12.527344 25.429688 12.539062 C 25.109375 12.597656 24.910156 12.738281 24.847656 12.945312 C 24.839844 12.976562 24.851562 12.980469 24.976562 12.957031 Z M 8.433594 12.917969 C 8.476562 12.910156 8.46875 12.847656 8.417969 12.765625 L 8.375 12.699219 L 8.320312 12.707031 C 8.230469 12.714844 8.105469 12.800781 8.105469 12.847656 C 8.105469 12.875 8.375 12.933594 8.433594 12.917969 Z M 11.160156 12.875 C 11.230469 12.84375 11.269531 12.792969 11.265625 12.742188 C 11.257812 12.640625 10.957031 12.621094 10.898438 12.714844 C 10.816406 12.847656 10.992188 12.953125 11.160156 12.875 Z M 12.101562 12.84375 C 12.066406 12.753906 11.988281 12.703125 11.816406 12.65625 C 11.710938 12.625 11.710938 12.625 11.726562 12.6875 C 11.753906 12.78125 11.832031 12.832031 12.007812 12.875 C 12.132812 12.90625 12.128906 12.90625 12.101562 12.84375 Z M 29.007812 12.808594 C 29.144531 12.761719 29.238281 12.605469 29.179688 12.515625 C 29.039062 12.316406 28.492188 12.421875 28.492188 12.652344 C 28.492188 12.777344 28.816406 12.871094 29.007812 12.808594 Z M 9.136719 12.648438 C 9.339844 12.539062 9.285156 12.292969 9.046875 12.273438 C 8.753906 12.246094 8.59375 12.574219 8.855469 12.671875 C 8.933594 12.699219 9.0625 12.6875 9.136719 12.648438 Z M 28.035156 12.53125 C 28.308594 12.492188 28.457031 12.355469 28.410156 12.191406 C 28.3125 11.828125 27.140625 11.886719 27.046875 12.253906 C 27.003906 12.410156 27.636719 12.585938 28.035156 12.53125 Z M 25.796875 12.429688 C 25.953125 12.390625 26.085938 12.285156 26.085938 12.207031 C 26.085938 12.105469 25.765625 12.269531 25.695312 12.40625 C 25.660156 12.46875 25.65625 12.46875 25.796875 12.429688 Z M 26.855469 12.378906 C 27.007812 12.324219 26.925781 12.152344 26.746094 12.152344 C 26.546875 12.152344 26.507812 12.191406 26.585938 12.328125 L 26.621094 12.394531 L 26.71875 12.394531 C 26.773438 12.394531 26.835938 12.386719 26.855469 12.378906 Z M 8.332031 12.222656 C 8.417969 12.199219 8.414062 12.183594 8.3125 12.148438 C 8.183594 12.105469 8.082031 12.117188 8.082031 12.179688 C 8.082031 12.238281 8.191406 12.257812 8.332031 12.222656 Z M 29.613281 12.195312 C 29.6875 12.160156 29.695312 12.121094 29.628906 12.0625 C 29.53125 11.972656 29.320312 12.058594 29.320312 12.1875 C 29.320312 12.242188 29.503906 12.246094 29.613281 12.195312 Z M 9.910156 12.203125 C 9.929688 12.183594 9.894531 12.09375 9.851562 12.050781 C 9.671875 11.875 9.242188 11.914062 9.242188 12.105469 C 9.242188 12.167969 9.863281 12.257812 9.910156 12.203125 Z M 28.976562 12.003906 C 29.226562 11.859375 28.933594 11.535156 28.65625 11.652344 C 28.539062 11.699219 28.472656 11.828125 28.519531 11.917969 C 28.578125 12.03125 28.839844 12.082031 28.976562 12.003906 Z M 28.152344 11.609375 C 28.386719 11.578125 28.546875 11.460938 28.453125 11.390625 C 28.257812 11.246094 27.859375 11.375 27.859375 11.585938 L 27.859375 11.621094 L 27.964844 11.621094 C 28.023438 11.621094 28.105469 11.617188 28.152344 11.609375 Z M 29.671875 11.515625 C 29.722656 11.46875 29.589844 11.414062 29.480469 11.441406 C 29.421875 11.453125 29.34375 11.507812 29.34375 11.535156 C 29.34375 11.554688 29.648438 11.539062 29.671875 11.515625 Z M 29.671875 11.515625 " fill-opacity="1" fill-rule="nonzero"/></g></svg>